#!OML:ASF F:\VICON\USERDATA\INSTALL\rory3\rory3.ASF
:FULLY-SPECIFIED
:DEGREES
46
root 0.5959161147975227 17.90429493581306 14.402356105737883 -3.6634971209358387 -2.6852221470767006 -1.6040221854840717
lfemur -19.26400789832742 -1.7113124491221676 -20.38803073893997
ltibia 28.465472036672004
lfoot -6.394211040923502 -3.9304301779872732
ltoes -1.2061551270610849
rfemur 0.7625983343005167 2.4429596241331457 25.271362003149466
rtibia 56.77671177722438
rfoot 4.582838543739735 -3.263627168213012
rtoes 6.815842541806113
lowerback 9.338098552299309 2.101943578136826 3.710643869742184
upperback -0.1950047944684586 2.473341746948316 0.828177127860126
thorax -4.908102035950598 1.7773399288068936 -1.7589852669093327
lowerneck -16.07204543261758 -3.0374981836981485 -1.9570545110976518
upperneck 20.891112260582574 -4.325075588500948 1.9029892085385385
head 9.238346129133156 -1.9092136030005962 0.4066979172051062
lclavicle -4.519183340852086e-16 -7.862551184068112e-16
lhumerus -35.74088306712488 8.63292473978277 78.64617031936697
lradius 18.878532001497824
lwrist 0.11068025420450933
lhand -27.826369739238096 21.149064081846856
lfingers 7.12502
lthumb -1.4068329558854358 50.62601967173186
rclavicle -4.529593016656037e-16 -7.762416901475243e-16
rhumerus -25.214202459285953 -16.638502936362553 -79.90310871851166
rradius 30.845134973799016
rwrist 1.8511416545306503
rhand -17.63302471757902 22.59725705513771
rfingers 7.12502
rthumb 8.496550721551559 -7.246311170614277
47
root 0.6519747716235065 17.94166545664141 14.988025034499762 -4.1088168498313635 -2.910340370674736 -0.4705557634210431
lfemur -16.087389471961536 -1.6882000703262152 -22.46085298764059
ltibia 28.558301361342973
lfoot -8.459125313867526 -2.734785266526497
ltoes -0.837574574740096
rfemur -4.4576775477409365 1.5128629638580788 23.304700370137905
rtibia 65.44976161173611
rfoot 3.868153369221364 -4.389014801265145
rtoes 5.771287477433937
lowerback 9.653749517093742 2.0405714191515307 2.5914552263990878
upperback -0.10688334270539858 2.1687971925927285 0.6929377267566399
thorax -5.043495526444548 1.6572079841546716 -1.3678146033522243
lowerneck -16.115031084699964 -2.972568860563721 -1.98242337267634
upperneck 20.86512167140263 -4.129169148784947 1.7623603927888227
head 9.25552338323795 -1.854605517324994 0.39134742941902734
lclavicle -4.519174481379462e-16 -7.862559657061352e-16
lhumerus -34.903063300605936 7.861948634981015 79.001110881735
lradius 19.211725908888674
lwrist 1.6374667684285322
lhand -27.895729443175906 20.97251514284952
lfingers 7.12502
lthumb -1.3943126944218123 50.66948806690158
rclavicle -4.529586703142203e-16 -7.762411690323189e-16
rhumerus -25.865100909690774 -17.834735453886093 -79.48870081726531
rradius 29.87660725079678
rwrist 2.9147025361468297
rhand -17.59167325212365 22.531462677556117
rfingers 7.12502
rthumb 8.530743428758873 -7.2921296704812395
48
root 0.6914943765980575 17.971335106033866 15.665902842912683 -4.442713866447362 -2.8907460955089745 0.271116974322664
lfemur -12.86342995519648 -1.524202746535351 -23.823915832267737
ltibia 28.100077876990436
lfoot -10.470046675805062 -2.2486974468580976
ltoes -0.3854824925923044
rfemur -9.306399217153071 0.43245995923902303 22.123635729855398
rtibia 71.73997936849756
rfoot 2.3179871074997394 -5.591478756242746
rtoes 4.592960197501989
lowerback 10.002841899078701 1.8824020866941766 1.5241260521191609
upperback -0.006662971415999822 1.8096145398721248 0.6262712485824998
thorax -5.174705396144633 1.4878350592968563 -0.915332668541228
lowerneck -16.16342532902312 -2.911191920933696 -2.0334931108845007
upperneck 20.774481106349054 -3.920163844342772 1.543962282179459
head 9.2690218510371 -1.7942415745211915 0.3594598419611188
lclavicle -4.519188847331619e-16 -7.862587556770791e-16
lhumerus -33.955242521884216 7.016968150006754 79.36323232645886
lradius 19.688103255014163
lwrist 3.271281991660808
lhand -27.91389797325713 21.01272426183221
lfingers 7.12502
lthumb -1.3829877585930062 50.75309516312112
rclavicle -4.529615690731356e-16 -7.762434179630445e-16
rhumerus -26.430230461109858 -18.773594351377447 -78.99229559378499
rradius 28.92797810137462
rwrist 3.9752505111206644
rhand -17.588052338200498 22.4288062609892
rfingers 7.12502
rthumb 8.557447385806885 -7.303759254375339
49
root 0.7155096753488648 17.986598953054763 16.293659418468184 -4.67618854658723 -2.63759830311058 0.7146911180999096
lfemur -9.729288845764112 -1.435827558028171 -24.735732912287688
ltibia 27.449890095302617
lfoot -11.619860392787487 -1.2609216733221966
ltoes 0.04215326468492808
rfemur -13.674665053280917 -0.4334212050526891 21.475039045690348
rtibia 75.08405818416992
rfoot 0.9247655133946058 -6.175253761326764
rtoes 3.0568683978414946
lowerback 10.320202076368734 1.6136758962249305 0.6458869846592693
upperback 0.0882485795287553 1.4244246865316026 0.6238195031181437
thorax -5.284975889027408 1.2697893064456685 -0.4221888934613842
lowerneck -16.16983522077601 -2.8618326982102227 -2.0981279084855537
upperneck 20.693376198298306 -3.743209699715304 1.3855537259802424
head 9.270865242091585 -1.7430315895650645 0.32004737956746543
lclavicle -4.519209049291036e-16 -7.862590808740409e-16
lhumerus -33.045396242532505 5.883353444658215 79.7055170092832
lradius 20.300242716082458
lwrist 4.248248866702898
lhand -27.977188756637766 21.00899072456411
lfingers 7.12502
lthumb -1.420539963358719 50.787457717827486
rclavicle -4.529622652165536e-16 -7.762438710071102e-16
rhumerus -27.15468274211769 -19.37143026795126 -78.6054784971297
rradius 28.174197688758145
rwrist 4.4566923980348
rhand -17.62036474156707 22.353158623170522
rfingers 7.12502
rthumb 8.547563145474571 -7.337194556539817
50
root 0.7264722726699262 17.981305500845863 16.80176095476987 -4.770154121642388 -2.2027190179911766 1.0389978333839807
lfemur -7.1611120907599055 -1.5357416568357558 -25.521232107862442
ltibia 26.939211708942345
lfoot -12.225083499988777 -0.4875851390141439
ltoes 0.3067173493217408
rfemur -17.613135963727217 -0.9254553569939756 21.083422871406167
rtibia 75.54304849909931
rfoot -1.0954753765717848 -6.7005614620485705
rtoes 1.8973080336350001
lowerback 10.584297258924463 1.2602570200269312 -0.015234599739544885
upperback 0.16650386279988247 1.0168887585755075 0.6664870245174411
thorax -5.36991723953382 0.9991651702078044 0.08667131367693331
lowerneck -16.16056632228307 -2.8412564196714887 -2.1903120604649042
upperneck 20.617324487738113 -3.6255265322487804 1.3064354850444497
head 9.269081762868714 -1.708672348059574 0.2975973566824147
lclavicle -4.519248487008353e-16 -7.862610004395064e-16
lhumerus -32.28598684409631 4.4450258538966905 79.9518785795545
lradius 21.05251953260225
lwrist 4.885797044884846
lhand -27.96358404319865 21.240682689235946
lfingers 7.12502
lthumb -1.3842270088428061 51.0542213434706
rclavicle -4.529625167863876e-16 -7.762441014886976e-16
rhumerus -27.947747903578623 -19.35729548251194 -78.41809381205464
rradius 27.817248564542982
rwrist 4.0985341967828
rhand -17.66646857591815 22.325835005406304
rfingers 7.12502
rthumb 8.533807108030386 -7.335923173545652
51
root 0.7285456667407477 17.95895062034044 17.298713988219934 -4.679495976664667 -1.7238359012332563 1.3395885994203187
lfemur -5.10954042175919 -1.7490695842683601 -26.278391636298196
ltibia 26.73835646047811
lfoot -12.561648354920038 -0.05337273367653772
ltoes 0.18258319979694493
rfemur -21.316227928832312 -1.1473978535662686 20.642463858087822
rtibia 73.22700912142102
rfoot -3.0081342107640747 -7.424233791699591
rtoes 0.5977008372263874
lowerback 10.794357603533625 0.8692605114970839 -0.5461034544464698
upperback 0.23129289504608158 0.6238072767771324 0.7349353530467952
thorax -5.404200789315954 0.699579581481637 0.6090991249922351
lowerneck -16.15810383833561 -2.856624900761656 -2.311955183812869
upperneck 20.5149877467138 -3.5719291962397497 1.3330910216008778
head 9.260135618631008 -1.6932352460874287 0.2862664827781098
lclavicle -4.519282857267627e-16 -7.862653125699673e-16
lhumerus -31.718191817076324 2.8809923353867455 80.04695825069905
lradius 21.94567288060137
lwrist 5.454372444992472
lhand -27.95179438606725 21.49783701523384
lfingers 7.12502
lthumb -1.3819957309999502 51.31809288960931
rclavicle -4.5296359613328e-16 -7.7624487654169175e-16
rhumerus -28.799326048880545 -18.926793782047206 -78.40134351533737
rradius 27.853209972739997
rwrist 3.2071655620444037
rhand -17.68622508065923 22.37224048045333
rfingers 7.12502
rthumb 8.53262470224585 -7.297679026481517
52
root 0.7236648675603323 17.930350997488727 17.940173723275272 -4.357642981669358 -1.3110121758348376 1.7344465216881204
lfemur -3.0032999555908955 -1.89306540189712 -27.016660189596195
ltibia 26.237373679676672
lfoot -12.751641550003878 0.05664214510222898
ltoes -0.18917265996802302
rfemur -24.2853019491969 -1.0564212733543985 20.205431381080867
rtibia 68.18519779314087
rfoot -3.803699099120916 -8.130588529827866
rtoes -0.8729625499940941
lowerback 10.922621345156664 0.47226092272727915 -1.0820833079824073
upperback 0.2770914729719785 0.25442709740225433 0.802693710546201
thorax -5.376320249982823 0.38935234758894877 1.1369578221245435
lowerneck -16.142889721523865 -2.882954685074371 -2.423194820461812
upperneck 20.38550953127029 -3.5716380443936773 1.4453264058795874
head 9.245388911235766 -1.6904816717443845 0.2970971231744338
lclavicle -4.519264318169138e-16 -7.86263484191955e-16
lhumerus -31.034814283500804 1.6944991537815288 80.0545642610999
lradius 22.981394432449385
lwrist 5.94101474007535
lhand -27.86618643328507 21.906254147491158
lfingers 7.12502
lthumb -1.353111802661938 51.62720071011494
rclavicle -4.529628737765434e-16 -7.762443350049943e-16
rhumerus -29.665125122549405 -18.472356009321967 -78.35479512793918
rradius 28.1121464985638
rwrist 2.493164859330115
rhand -17.685616001131567 22.449296399640474
rfingers 7.12502
rthumb 8.562522733250464 -7.1969261911510864
53
root 0.7103043461868043 17.908065422595403 18.729660638425987 -3.7789609719143864 -0.9290292983480068 2.2091506333434374
lfemur -0.5811731121000108 -1.886853077382562 -27.611312039831407
ltibia 24.584719665234317
lfoot -12.517135917726158 0.38177012112406006
ltoes -0.6384554042512192
rfemur -26.280412930224415 -0.6486417264614714 19.7364921328285
rtibia 60.33113426948239
rfoot -3.5189173228414585 -8.888439505976777
rtoes -2.1368384039904305
lowerback 10.922147750721908 0.09668063207923114 -1.6631253015360274
upperback 0.301745203455027 -0.07612843541636172 0.8582082221642737
thorax -5.277471986098751 0.09417408660044602 1.6653789067379499
lowerneck -16.119152000278625 -2.9099255498944356 -2.5246729303778555
upperneck 20.29459530605428 -3.5855341022061546 1.5785422013191117
head 9.23308476817494 -1.6963038422035348 0.32972538215651886
lclavicle -4.519261430175734e-16 -7.862632024667168e-16
lhumerus -30.251895678836764 1.088069081204761 79.96805397992067
lradius 24.13959659950089
lwrist 6.336377981178742
lhand -27.938868206312442 21.758433736360402
lfingers 7.12502
lthumb -1.3952378017937503 51.566987225936245
rclavicle -4.529622908690989e-16 -7.762438958279847e-16
rhumerus -30.48146971187846 -18.24970998712031 -78.16446400012205
rradius 28.356320259325894
rwrist 2.2598156175579875
rhand -17.67600982993393 22.547439429011376
rfingers 7.12502
rthumb 8.592606350801688 -7.097451947531168
